<?xml version="1.0" standalone="no"?>
<!DOCTYPE svg PUBLIC "-//W3C//DTD SVG 20010904//EN"
 "http://www.w3.org/TR/2001/REC-SVG-20010904/DTD/svg10.dtd">
<svg version="1.0" xmlns="http://www.w3.org/2000/svg"
 width="225.000000pt" height="225.000000pt" viewBox="0 0 225.000000 225.000000"
 preserveAspectRatio="xMidYMid meet">
<metadata>
Created by potrace 1.11, written by Peter Selinger 2001-2013
</metadata>
<g transform="translate(0.000000,225.000000) scale(0.100000,-0.100000)"
fill="#000000" stroke="none">
<path d="M997 2239 c-141 -15 -323 -75 -442 -146 -291 -175 -479 -443 -541
-770 -22 -118 -15 -354 14 -463 112 -421 412 -721 832 -832 98 -26 317 -35
431 -18 287 42 562 205 740 439 69 91 154 267 186 386 24 91 27 116 27 280 0
162 -3 190 -26 276 -36 133 -78 229 -146 335 -187 288 -496 479 -833 514 -112
11 -129 11 -242 -1z m554 -685 c225 -103 409 -189 409 -193 0 -3 -21 -17 -48
-31 l-47 -25 -3 -112 -3 -113 -29 0 -29 0 -3 94 -3 94 -195 -105 c-107 -57
-258 -137 -335 -178 l-141 -74 -409 219 c-226 121 -410 225 -410 231 0 12 789
376 818 378 11 1 203 -83 428 -185z m74 -591 c18 -145 13 -167 -56 -227 -54
-46 -223 -129 -305 -150 -135 -35 -291 -13 -437 60 -213 107 -238 151 -202
354 8 47 15 86 15 88 0 13 56 -14 207 -99 98 -56 201 -114 228 -129 l50 -29
235 134 c129 73 238 130 242 127 4 -4 14 -62 23 -129z m243 75 c7 -7 12 -25
12 -40 0 -40 -39 -58 -75 -34 -27 18 -31 36 -15 67 12 22 59 26 78 7z m31
-167 c13 -47 12 -54 -2 -68 -21 -21 -102 -22 -123 -1 -15 14 -12 44 10 113 2
6 25 9 52 9 l49 -1 14 -52z"/>
</g>
</svg>
